<?xml version="1.0" standalone="no"?>
<!DOCTYPE svg PUBLIC "-//W3C//DTD SVG 20010904//EN"
 "http://www.w3.org/TR/2001/REC-SVG-20010904/DTD/svg10.dtd">
<svg version="1.0" xmlns="http://www.w3.org/2000/svg"
 width="1024.000000pt" height="1024.000000pt" viewBox="0 0 1024.000000 1024.000000"
 preserveAspectRatio="xMidYMid meet">
<metadata>
Created by potrace 1.16, written by Peter Selinger 2001-2019
</metadata>
<g transform="translate(0.000000,1024.000000) scale(0.100000,-0.100000)"
fill="#9B9B9B" stroke="none">
<path d="M2535 8503 c-64 -23 -105 -53 -148 -106 -59 -73 -71 -104 -72 -192 0
-70 3 -86 28 -128 40 -68 83 -114 136 -145 41 -24 56 -27 142 -27 l95 0 64 42
c66 45 82 47 140 17 57 -29 76 -64 143 -274 36 -113 98 -299 136 -415 39 -115
107 -340 151 -498 77 -276 107 -376 206 -697 91 -296 196 -567 255 -657 55
-84 104 -124 218 -181 l94 -47 1351 0 c743 0 1421 -4 1507 -9 182 -9 247 0
309 45 45 33 80 83 80 116 0 12 -11 35 -25 51 -52 63 27 60 -1395 50 -712 -5
-1385 -7 -1495 -5 -185 3 -205 5 -268 29 -140 53 -185 105 -237 271 -18 56
-54 171 -81 255 -27 83 -63 203 -80 265 -17 61 -35 119 -40 128 -22 42 -101
330 -126 459 -30 158 -35 318 -15 438 21 123 123 279 230 350 57 38 181 96
189 89 2 -3 6 -218 10 -478 5 -447 4 -482 -16 -614 -41 -276 -30 -328 109
-495 64 -77 87 -99 160 -157 152 -119 312 -192 476 -218 86 -14 224 -16 1069
-13 l970 4 102 27 c282 74 460 179 649 384 105 113 149 171 202 260 122 207
172 403 172 672 0 295 -63 457 -249 642 -141 138 -249 198 -427 234 -71 14
-246 15 -1659 13 l-1580 -3 -88 -28 c-158 -49 -281 -122 -379 -223 -52 -55
-122 -161 -132 -199 -10 -41 -22 -29 -41 43 -18 65 -71 214 -135 379 -62 160
-140 247 -291 323 -43 22 -59 37 -73 68 -22 49 -87 113 -143 142 -58 30 -136
35 -198 13z m167 -200 c48 -40 57 -54 58 -89 0 -46 -63 -113 -112 -121 -31 -5
-44 -1 -74 22 -42 32 -74 81 -74 114 0 14 16 39 39 62 34 34 45 39 84 39 35 0
53 -6 79 -27z m1948 -1388 c0 -738 1 -772 20 -812 22 -49 16 -52 -47 -24 -120
55 -234 155 -321 280 l-37 53 -3 635 c-2 350 -1 650 3 669 l6 34 182 2 182 3
7 -35 c4 -19 7 -381 8 -805z m612 -17 c2 -475 7 -871 12 -880 8 -17 -2 -18
-130 -18 -77 0 -183 3 -236 7 l-97 6 29 34 c17 18 31 39 31 46 1 7 1 336 -1
732 -1 396 1 766 5 822 l8 103 171 3 c94 1 179 4 188 5 17 2 18 -49 20 -860z
m607 20 c-1 -599 2 -851 10 -871 6 -16 11 -33 11 -38 0 -5 -89 -9 -216 -9
l-215 0 15 22 c14 20 16 112 16 793 0 423 3 807 7 852 l6 83 176 3 c97 1 179
4 184 5 4 1 7 -377 6 -840z m1221 740 c-2 -57 -3 -395 -2 -752 l2 -649 45 -44
c25 -23 45 -44 45 -47 0 -8 -215 -99 -278 -117 -68 -20 -205 -49 -231 -49 -9
0 -4 10 13 26 l26 27 3 441 c1 242 2 624 1 848 l0 408 180 3 c100 1 185 3 190
5 4 1 7 -44 6 -100z m-618 -747 l3 -839 23 -31 c12 -16 22 -33 22 -36 0 -3
-101 -5 -225 -5 l-225 0 16 25 c16 24 17 94 15 823 0 438 2 821 5 850 l7 52
178 0 178 0 3 -839z m914 758 c183 -116 249 -226 278 -468 17 -132 11 -249
-19 -376 -34 -147 -130 -349 -220 -460 -68 -85 -82 -96 -96 -74 -11 17 -11
1409 0 1409 4 0 29 -14 57 -31z"/>
<path d="M7530 7405 c65 -87 69 -91 40 -38 -13 23 -39 57 -58 75 -27 27 -24
19 18 -37z"/>
<path d="M3675 5014 c-91 -20 -202 -67 -274 -115 -32 -22 -101 -83 -153 -137
-153 -160 -215 -304 -225 -520 -8 -175 17 -294 96 -451 85 -167 256 -320 424
-380 l75 -26 -326 4 c-225 2 -337 0 -364 -8 -40 -12 -60 -39 -72 -97 -8 -37
18 -110 44 -124 31 -17 1878 -22 3410 -10 1625 13 1493 5 1539 89 24 43 24 44
6 78 -35 64 -63 73 -236 74 -85 1 -233 4 -329 8 l-175 7 48 22 c26 13 82 50
125 82 200 150 317 341 353 573 14 87 6 239 -16 322 -60 226 -248 450 -457
544 -110 50 -180 63 -351 68 -151 5 -161 4 -240 -22 -140 -46 -246 -107 -330
-190 -110 -108 -206 -259 -223 -353 -4 -19 -12 -35 -18 -37 -6 -2 -312 -6
-679 -8 l-668 -5 -9 22 c-4 11 -18 50 -31 85 -46 129 -178 297 -299 381 -67
45 -145 86 -220 113 -76 27 -323 34 -425 11z m3246 -224 c120 -24 270 -108
348 -196 59 -66 116 -187 131 -277 27 -154 -7 -337 -83 -451 -110 -165 -311
-278 -497 -279 -160 0 -297 58 -416 177 -64 64 -90 99 -123 166 -22 47 -46
109 -51 139 -13 71 -13 213 1 286 24 129 127 274 253 356 132 86 270 111 437
79z m-2900 -20 c151 -47 293 -164 354 -292 40 -84 65 -187 64 -268 0 -249
-132 -465 -344 -566 -141 -67 -262 -81 -389 -43 -141 42 -230 101 -316 208
-98 122 -131 218 -131 379 0 133 15 210 57 300 60 130 209 250 364 292 93 25
242 21 341 -10z m1969 -690 c13 -104 42 -188 102 -295 92 -162 206 -268 380
-350 l93 -44 -105 -2 c-58 0 -251 -5 -430 -10 -179 -5 -338 -9 -355 -10 -151
-3 -1533 15 -1543 21 -9 4 8 16 48 33 250 109 445 379 492 683 l11 71 648 -1
647 -1 12 -95z"/>
<path d="M6710 4603 c-53 -10 -151 -63 -198 -107 -153 -143 -148 -419 12 -593
65 -71 136 -107 257 -127 50 -9 132 9 212 46 112 52 194 166 224 315 13 65 13
81 0 147 -17 80 -63 164 -120 218 -82 77 -262 124 -387 101z m190 -235 c66
-34 92 -84 87 -168 -5 -80 -26 -122 -77 -156 -82 -55 -184 -32 -245 54 -41 59
-46 149 -13 207 48 81 157 109 248 63z"/>
<path d="M3750 4603 c-55 -11 -152 -64 -198 -107 -27 -26 -65 -74 -83 -109
-33 -60 -34 -65 -34 -177 0 -135 20 -199 89 -283 136 -167 379 -200 559 -77
18 12 54 52 80 88 62 86 92 179 91 288 -1 110 -33 181 -120 264 -86 83 -152
111 -269 115 -49 2 -101 1 -115 -2z m180 -228 c33 -17 76 -64 85 -93 22 -74
-5 -184 -57 -227 -150 -127 -358 54 -282 245 28 68 100 104 189 92 22 -2 51
-11 65 -17z"/>
<path d="M5160 2911 c-36 -4 -75 -13 -87 -19 -60 -33 -71 -111 -24 -164 l29
-33 167 -3 166 -3 46 45 c40 41 45 49 39 78 -9 43 -32 77 -62 88 -34 13 -197
20 -274 11z"/>
<path d="M4310 2891 c-112 -7 -146 -23 -155 -75 -10 -49 15 -90 67 -111 35
-14 80 -17 243 -18 177 -1 204 1 238 17 73 36 86 120 26 170 -30 26 -33 26
-177 24 -81 -1 -190 -4 -242 -7z"/>
<path d="M5764 2886 c-41 -18 -64 -52 -64 -96 0 -64 58 -100 161 -100 126 0
190 84 122 160 -43 47 -152 65 -219 36z"/>
<path d="M6223 2878 c-53 -59 -57 -111 -12 -154 28 -27 37 -29 120 -33 108 -4
128 1 162 35 20 19 27 37 27 64 0 77 -58 110 -197 110 -70 0 -82 -3 -100 -22z"/>
</g>
</svg>
